<?xml version="1.0" standalone="no"?>
<!DOCTYPE svg PUBLIC "-//W3C//DTD SVG 20010904//EN"
 "http://www.w3.org/TR/2001/REC-SVG-20010904/DTD/svg10.dtd">
<svg version="1.0" xmlns="http://www.w3.org/2000/svg"
 width="2000.000000pt" height="2000.000000pt" viewBox="0 0 2000.000000 2000.000000"
 preserveAspectRatio="xMidYMid meet">
<metadata>
Created by potrace 1.14, written by Peter Selinger 2001-2017
</metadata>
<g transform="translate(0.000000,2000.000000) scale(0.100000,-0.100000)"
fill="#000000" stroke="none">
<path d="M14744 19027 c-6 -7 -31 -28 -55 -48 -24 -20 -107 -90 -185 -155 -77
-66 -160 -135 -184 -154 -24 -19 -48 -40 -54 -45 -6 -6 -108 -91 -226 -190
-118 -98 -269 -225 -335 -280 -166 -140 -773 -648 -985 -824 -96 -80 -177
-148 -180 -151 -3 -4 -48 -42 -100 -85 -52 -43 -97 -81 -100 -84 -3 -3 -27
-24 -55 -46 -27 -22 -136 -112 -240 -200 -105 -88 -213 -178 -239 -200 -27
-22 -58 -48 -70 -58 -11 -11 -41 -35 -65 -55 -25 -21 -104 -86 -176 -147 -72
-60 -211 -177 -310 -260 -99 -82 -182 -152 -185 -156 -3 -3 -32 -28 -66 -55
-33 -27 -155 -128 -270 -225 -115 -96 -292 -245 -394 -329 -102 -85 -187 -157
-190 -160 -3 -3 -129 -109 -280 -235 -151 -126 -284 -237 -295 -246 -11 -10
-54 -46 -95 -81 -42 -34 -98 -81 -124 -103 -27 -22 -58 -48 -70 -58 -47 -40
-63 -54 -116 -97 -30 -25 -57 -47 -60 -50 -3 -3 -47 -40 -97 -83 -51 -42 -135
-112 -185 -154 -51 -43 -95 -80 -98 -83 -3 -3 -41 -35 -85 -70 -44 -36 -93
-77 -110 -91 -16 -15 -79 -68 -140 -119 -60 -50 -130 -108 -155 -129 -25 -21
-148 -125 -275 -231 -269 -224 -308 -257 -344 -288 -14 -13 -57 -49 -96 -80
-38 -31 -72 -59 -75 -62 -3 -3 -59 -50 -125 -105 -66 -55 -122 -102 -125 -105
-3 -3 -86 -73 -185 -155 -99 -82 -182 -152 -185 -155 -3 -3 -32 -27 -65 -55
-33 -27 -65 -54 -72 -60 -7 -5 -18 -14 -25 -20 -8 -5 -32 -26 -54 -45 -61 -53
-125 -107 -279 -234 -77 -64 -149 -125 -160 -134 -11 -10 -171 -144 -355 -298
-184 -153 -340 -283 -346 -289 -6 -5 -31 -26 -55 -47 -24 -20 -118 -98 -209
-175 -91 -76 -206 -172 -255 -213 -50 -41 -95 -79 -101 -85 -6 -5 -31 -26 -54
-45 -24 -19 -104 -87 -180 -150 -75 -63 -185 -155 -244 -205 -60 -49 -113 -95
-120 -100 -6 -6 -132 -111 -281 -235 -148 -124 -272 -227 -275 -230 -3 -3 -45
-39 -95 -80 -49 -41 -92 -77 -95 -80 -3 -3 -124 -105 -270 -226 -218 -182
-545 -456 -686 -574 -17 -14 -194 -162 -395 -329 -200 -168 -366 -307 -369
-310 -8 -9 -71 -62 -120 -101 -25 -19 -63 -51 -85 -70 -34 -30 -99 -85 -244
-205 -13 -11 -29 -24 -35 -30 -6 -5 -51 -44 -101 -85 -49 -41 -95 -79 -101
-85 -6 -5 -30 -26 -54 -45 -24 -19 -62 -51 -85 -70 -22 -19 -63 -53 -89 -75
-27 -22 -54 -45 -60 -50 -6 -6 -92 -78 -191 -161 l-181 -150 5553 0 c3053 1
5549 -2 5545 -5 -4 -3 -68 -27 -142 -53 -74 -26 -198 -70 -275 -98 -77 -27
-144 -51 -150 -52 -5 -2 -22 -8 -38 -14 -15 -7 -53 -20 -85 -31 -31 -10 -138
-48 -237 -84 -188 -67 -442 -158 -655 -234 -69 -24 -154 -55 -190 -68 -36 -12
-105 -37 -155 -54 -49 -17 -99 -35 -110 -40 -11 -5 -81 -30 -155 -56 -207 -73
-303 -107 -325 -116 -21 -9 -104 -38 -195 -69 -30 -10 -107 -37 -170 -60 -198
-72 -393 -141 -440 -157 -25 -8 -54 -19 -65 -23 -11 -5 -137 -50 -280 -101
-143 -50 -274 -97 -292 -105 -17 -8 -35 -14 -39 -14 -5 0 -56 -17 -114 -39
-58 -21 -166 -60 -240 -86 -74 -25 -144 -50 -155 -55 -11 -4 -58 -22 -105 -38
-47 -17 -238 -85 -425 -152 -187 -67 -354 -126 -371 -131 -32 -9 -39 -28 -59
-144 -2 -16 -20 -106 -39 -200 -19 -93 -37 -190 -41 -215 -4 -24 -8 -47 -11
-51 -2 -3 -6 -21 -8 -40 -6 -43 -14 -82 -26 -139 -5 -25 -12 -60 -15 -79 -3
-19 -7 -37 -9 -40 -2 -3 -7 -28 -10 -55 -4 -27 -9 -52 -11 -55 -1 -3 -6 -24
-9 -46 -4 -22 -13 -71 -21 -110 -8 -38 -16 -81 -18 -95 -3 -14 -16 -83 -30
-155 -15 -71 -28 -141 -31 -155 -3 -14 -10 -50 -16 -80 -6 -30 -13 -66 -15
-80 -3 -14 -7 -36 -10 -50 -3 -14 -8 -36 -10 -50 -2 -14 -7 -37 -10 -52 -3
-16 -7 -38 -9 -50 -2 -13 -18 -93 -35 -178 -17 -85 -32 -166 -35 -180 -3 -14
-10 -50 -16 -80 -6 -30 -20 -100 -30 -155 -10 -55 -21 -112 -24 -127 -4 -16
-8 -38 -10 -50 -2 -13 -20 -104 -40 -203 -19 -99 -38 -196 -41 -215 -3 -19
-10 -53 -15 -75 -5 -22 -12 -56 -15 -75 -3 -19 -8 -42 -10 -50 -2 -8 -6 -31
-9 -50 -5 -33 -10 -57 -20 -105 -2 -11 -14 -69 -25 -130 -12 -60 -30 -153 -41
-205 -11 -52 -22 -108 -24 -125 -3 -16 -10 -54 -16 -84 -5 -30 -8 -56 -5 -59
2 -3 33 20 67 50 35 30 133 113 218 184 85 71 166 139 180 151 14 12 111 92
215 179 105 87 195 163 201 169 6 5 30 26 54 45 24 19 48 40 54 45 6 6 94 80
196 164 102 85 201 168 220 185 20 17 58 49 84 71 27 22 82 67 121 100 39 33
93 78 119 100 27 22 58 48 70 59 11 10 41 35 66 55 25 20 47 39 50 42 3 3 61
52 129 108 68 57 129 107 135 112 6 5 22 19 37 32 14 12 47 40 74 62 26 22 91
76 144 120 53 44 193 161 311 260 118 99 223 187 234 195 10 8 26 22 35 31 12
12 322 270 454 379 34 28 62 51 92 78 23 21 303 255 470 393 25 21 112 94 145
123 14 11 50 41 80 66 30 25 57 47 60 50 5 5 106 90 143 120 10 8 28 23 40 34
12 10 42 35 67 55 25 20 58 48 75 62 30 27 297 250 434 364 20 17 41 35 47 40
15 13 79 66 174 145 41 34 89 74 105 89 17 14 55 46 85 71 30 25 66 55 80 66
21 18 65 55 205 172 365 306 725 608 855 717 92 77 187 156 211 176 43 36 224
187 264 221 39 33 483 405 649 543 93 77 176 147 185 156 9 8 52 44 96 80 43
35 86 71 95 79 37 33 124 106 144 120 12 8 26 19 31 25 10 11 109 95 154 131
13 10 43 35 65 55 23 19 160 135 306 256 360 300 790 660 820 686 14 12 41 35
60 50 19 16 55 45 80 66 104 89 198 168 430 361 135 113 247 207 250 210 3 3
30 25 60 50 30 25 57 47 60 50 3 3 86 72 185 155 99 82 182 152 185 155 3 3
30 25 60 50 30 25 66 55 80 67 14 12 75 62 135 113 61 50 121 101 135 113 14
12 79 66 145 121 66 55 131 110 145 122 14 12 59 50 100 84 115 95 161 134
174 145 6 6 81 69 166 140 85 70 157 131 160 134 3 3 28 24 55 46 28 21 61 49
75 62 14 12 129 108 255 214 127 105 244 203 261 218 17 14 42 35 55 46 19 16
430 360 538 450 13 11 29 25 35 30 6 6 79 66 161 135 83 68 152 127 155 130 3
3 30 25 60 50 30 25 60 49 66 55 6 5 33 28 59 50 27 22 120 100 207 173 l159
132 -3021 0 c-2873 0 -3021 1 -3016 18 4 15 49 239 60 302 2 14 11 59 20 100
13 67 29 149 42 220 2 14 7 36 10 50 3 14 8 36 10 50 4 22 15 79 29 150 3 14
8 41 11 60 3 19 10 55 16 80 5 25 12 56 14 70 2 14 9 48 14 75 6 28 12 61 15
75 3 14 7 36 10 50 3 14 7 34 9 45 2 11 16 81 30 155 15 74 28 146 31 160 3
14 7 36 10 50 3 14 7 36 10 50 3 14 17 86 31 160 14 74 28 146 30 160 7 35 8
44 44 225 17 88 38 193 46 234 8 41 17 88 20 105 3 17 14 74 25 126 11 52 22
111 25 130 3 19 17 89 30 155 14 66 27 134 30 150 2 17 21 111 40 210 20 99
38 191 40 205 3 14 14 72 25 130 11 58 23 116 25 130 8 39 44 222 49 250 3 14
7 36 9 50 3 14 21 108 41 210 20 102 39 195 41 208 6 34 10 54 48 247 40 206
93 478 100 515 8 42 26 133 31 160 3 14 7 36 10 50 2 14 9 50 15 80 6 30 13
66 16 80 3 14 16 82 29 153 14 70 25 129 25 132 0 9 -15 4 -26 -8z"/>
</g>
</svg>
